<?xml version="1.0" encoding="utf-8"?>
<!-- Generator: Adobe Illustrator 15.0.2, SVG Export Plug-In . SVG Version: 6.00 Build 0)  -->
<!DOCTYPE svg PUBLIC "-//W3C//DTD SVG 1.1//EN" "http://www.w3.org/Graphics/SVG/1.1/DTD/svg11.dtd">
<svg version="1.1" id="Ebene_1" xmlns="http://www.w3.org/2000/svg" xmlns:xlink="http://www.w3.org/1999/xlink" x="0px" y="0px"
	 width="630px" height="161px" viewBox="0 0 630 161" enable-background="new 0 0 630 161" xml:space="preserve">
<g>
	<path d="M24.681,91h-6.48V52.117c0-4.32-0.72-7.201-5.041-7.201h-1.44v-1.44h18.722c6.12,0,18.001,1.44,18.001,14.401
		c0,12.241-11.881,13.681-15.841,13.681h-7.921V91z M41.243,57.517c0-8.641-7.201-11.521-11.161-11.521c-1.8,0-3.96,0.36-5.4,0.72
		v21.602c1.44,0.36,3.6,0.72,5.4,0.72C34.042,69.038,41.243,66.158,41.243,57.517z"/>
	<path d="M62.84,91h-6.481V65.798c0-4.32-0.72-7.201-5.04-7.201h-1.44v-1.44h6.48c5.041,0,6.481,1.44,6.481,8.641V91z
		 M59.096,52.837c-2.232,0-4.032-2.16-4.032-4.608c0-2.017,1.296-3.241,3.312-3.241c2.232,0,4.032,2.161,4.032,4.608
		C62.408,51.613,61.112,52.837,59.096,52.837z"/>
	<path d="M86.601,56.437c10.081,0,15.841,7.921,15.841,17.642S96.682,91.72,86.601,91.72c-10.081,0-15.841-7.921-15.841-17.642
		S76.52,56.437,86.601,56.437z M86.601,59.317c-5.4,0-9,6.48-9,14.761s3.6,14.761,9,14.761s9.001-6.48,9.001-14.761
		S92.001,59.317,86.601,59.317z"/>
	<path d="M110.359,65.798c0-4.32-0.72-7.201-5.04-7.201h-1.44v-1.44h6.48c3.601,0,5.401,1.08,6.121,2.88h0.36
		c1.8-1.8,5.041-3.6,9.361-3.6c6.12,0,12.241,2.52,12.241,12.961V91h-6.48V69.398c0-7.201-3.96-9.721-7.92-9.721
		c-2.88,0-5.401,1.8-7.201,3.816V91h-6.481V65.798z"/>
	<path d="M155.72,91h-6.48V65.798c0-4.32-0.72-7.201-5.041-7.201h-1.44v-1.44h6.481c5.04,0,6.48,1.44,6.48,8.641V91z
		 M151.975,52.837c-2.232,0-4.032-2.16-4.032-4.608c0-2.017,1.296-3.241,3.312-3.241c2.232,0,4.032,2.161,4.032,4.608
		C155.288,51.613,153.991,52.837,151.975,52.837z"/>
	<path d="M192.657,75.159h-21.458c0,7.92,3.601,13.681,9.721,13.681c4.68,0,7.561-2.16,10.081-5.761l1.44,1.08
		c-3.241,5.401-7.561,7.561-12.961,7.561c-10.081,0-15.121-7.921-15.121-17.642s5.041-17.642,14.041-17.642
		c9.721,0,14.401,5.76,14.401,15.841L192.657,75.159z M186.321,72.278c0-7.92-2.521-12.601-7.561-12.601
		c-4.32,0-7.561,5.4-7.561,12.601H186.321z"/>
	<path d="M201.438,65.798c0-4.32-0.72-7.201-5.041-7.201h-0.72v-1.44h5.761c3.6,0,5.4,1.08,6.12,3.24h0.36
		c1.44-1.8,4.32-3.96,8.641-3.96c1.44,0,3.24,0.36,4.32,1.08s1.8,1.8,2.52,3.24l-2.88,2.16c-1.08-1.44-3.24-2.16-5.761-2.16
		c-2.88,0-5.4,1.44-6.84,3.601V91h-6.48V65.798z"/>
	<path d="M234.199,66.518c0,17.281,7.92,23.042,17.281,23.042c5.113,0,8.353-1.008,11.161-2.521V74.511
		c0-3.96,1.08-8.425,11.881-8.425v1.44c-4.681,0-5.401,2.592-5.401,6.841v13.537c-5.184,3.168-10.657,4.536-17.642,4.536
		c-14.401,0-24.482-11.521-24.482-25.922c0-13.681,8.641-24.482,22.322-24.482c8.641,0,14.689,2.592,17.282,5.761
		c1.8,2.16,1.8,6.48,1.8,9.721h-1.44c-1.8-8.281-6.84-12.601-15.481-12.601C239.239,44.916,234.199,55.717,234.199,66.518z"/>
	<path d="M300.44,91l-2.521-3.24h-0.359c-1.44,1.8-4.681,3.96-10.081,3.96c-3.961,0-10.441-2.16-10.441-10.081
		c0-7.92,8.642-10.081,18.362-10.081h2.16c0-10.081-3.24-12.241-7.561-12.241c-3.961,0-6.841,1.44-7.921,6.121h-3.24
		c0-2.521,0-4.681,1.8-6.481c1.8-1.8,6.48-2.52,10.801-2.52c6.48,0,12.602,2.16,12.602,15.121V91H300.44z M297.561,74.438h-2.16
		c-7.201,0-11.521,2.88-11.521,7.201c0,4.681,3.24,6.841,6.841,6.841s5.4-2.16,6.841-4.321V74.438z"/>
	<path d="M314.837,65.798c0-4.32-0.721-7.201-5.041-7.201h-0.72v-1.44h5.761c3.6,0,5.4,1.08,6.12,3.24h0.36
		c1.44-1.8,4.32-3.96,8.641-3.96c1.44,0,3.24,0.36,4.32,1.08s1.8,1.8,2.521,3.24l-2.881,2.16c-1.08-1.44-3.24-2.16-5.76-2.16
		c-2.881,0-5.4,1.44-6.841,3.601V91h-6.48V65.798z"/>
	<path d="M361.64,91l-2.521-3.24h-0.359c-1.44,1.8-4.681,3.96-10.081,3.96c-3.961,0-10.441-2.16-10.441-10.081
		c0-7.92,8.642-10.081,18.362-10.081h2.16c0-10.081-3.24-12.241-7.561-12.241c-3.961,0-6.841,1.44-7.921,6.121h-3.24
		c0-2.521,0-4.681,1.8-6.481c1.8-1.8,6.48-2.52,10.801-2.52c6.48,0,12.602,2.16,12.602,15.121V91H361.64z M358.76,74.438h-2.16
		c-7.201,0-11.521,2.88-11.521,7.201c0,4.681,3.24,6.841,6.841,6.841s5.4-2.16,6.841-4.321V74.438z"/>
	<path d="M387.558,56.437h13.321v1.8l-4.681,0.72v0.36c2.881,1.44,5.041,4.32,5.041,7.92c0,8.281-6.121,10.801-13.682,10.801
		c-5.04,0-7.561,0.72-7.561,2.52s2.521,2.52,7.561,2.52c8.641,0,15.842,3.241,15.842,11.161c0,8.281-6.841,11.161-15.842,11.161
		s-15.841-2.88-15.841-11.161c0-4.68,3.6-7.92,7.92-9.361c-1.439-0.72-2.88-2.16-2.88-4.32s1.44-3.24,2.521-3.96
		c-2.881-1.44-5.4-4.68-5.4-9.361C373.877,58.957,379.997,56.437,387.558,56.437z M384.317,85.6c-3.601,1.44-6.12,3.96-6.12,8.641
		c0,5.761,3.96,8.281,9.36,8.281s9.361-2.52,9.361-8.281c0-4.68-2.881-7.561-8.641-8.281L384.317,85.6z M387.558,58.957
		c-3.96,0-7.2,2.16-7.2,8.281s3.24,8.281,7.2,8.281c3.961,0,7.201-2.16,7.201-8.281C394.759,61.478,391.519,58.957,387.558,58.957z"
		/>
	<path d="M436.015,75.159h-21.458c0,7.92,3.601,13.681,9.721,13.681c4.681,0,7.561-2.16,10.081-5.761l1.44,1.08
		c-3.24,5.401-7.561,7.561-12.961,7.561c-10.081,0-15.122-7.921-15.122-17.642s5.041-17.642,14.042-17.642
		c9.721,0,14.4,5.76,14.4,15.841L436.015,75.159z M429.678,72.278c0-7.92-2.52-12.601-7.561-12.601c-4.32,0-7.561,5.4-7.561,12.601
		H429.678z"/>
</g>
<g>
	<g>
		<defs>
			<rect id="SVGID_1_" x="436.998" y="-9.002" width="183.624" height="136"/>
		</defs>
		<clipPath id="SVGID_2_">
			<use xlink:href="#SVGID_1_"  overflow="visible"/>
		</clipPath>
		<g clip-path="url(#SVGID_2_)">
			<defs>
				<rect id="SVGID_3_" x="436.998" y="-9.002" width="183.624" height="136"/>
			</defs>
			<clipPath id="SVGID_4_">
				<use xlink:href="#SVGID_3_"  overflow="visible"/>
			</clipPath>
			<path clip-path="url(#SVGID_4_)" fill-rule="evenodd" clip-rule="evenodd" fill="#B3101D" d="M439.78,34.858v-0.328
				c6.459,0.123,11.038,0.749,15.221-1.8c3.953-2.41,7.253-8.193,13.583-7.692c2.608,0.206,4.582,3.868,4.582,6.546
				c0,1.801-0.837,3.392-0.654,5.073c0.288,2.655,1.739,3.797,2.782,5.892c-1.651,3.571-3.131,7.747-8.183,7.037
				c-6.002-0.843-7.516-8.563-11.62-10.147c-2.327-0.898-5.219,0.008-6.873,0.655c1.063-1.086,2.271-2.145,4.091-2.455
				c2.887-0.492,12.63,2.084,11.783-3.11c-0.237-1.458-2.242-1.96-4.091-1.636c-2.215,0.388-4.509,2.563-7.855,3.109
				C448.069,36.735,444.066,35.268,439.78,34.858"/>
			<path clip-path="url(#SVGID_4_)" fill-rule="evenodd" clip-rule="evenodd" fill="#B3101D" d="M480.367,12.11
				c5.994,0.615,10.552,3.129,15.221,5.728c10.192,5.674,24.848,1.477,37.149-0.164c23.466-3.128,49.669-2.903,68.9,5.237
				c-17.674,12.385-43.515,16.602-70.536,19.639c12.918,1.419,22.071,5.776,31.095,11.62c3.642,2.358,7.822,5.301,12.274,4.419
				c-0.955,1.772-3.262,2.193-5.073,3.109c5.932,0.416,10.404-0.436,14.401-2.619c5.722-3.125,8.293-9.64,13.42-12.111
				c1.749-0.842,4.26-0.994,6.874-1.473c1.484-0.272,3.323-1.171,5.4-0.491c1.775,0.582,2.578,2.42,3.438,4.255
				c3.141,2.336,6.767,8.564,3.272,13.092c-1.914-0.817-3.955-1.586-6.055-2.291c-1.993-0.669-4.012-1.72-6.056-1.8
				c-0.763,4.447,4.321,5.804,6.874,8.02c-2.04,3.129-7.258,2.434-11.457,2.618c-4.501,0.198-9.484-0.096-13.256,0.818
				c-7.427,1.801-12.709,6.587-17.348,10.802c0.759,2.985,2.026,5.639,1.964,8.837c-0.114,5.929-4.209,10.143-7.037,13.42
				c0.428,1.279,0.483,2.445-0.491,2.782c-1.807,0.626-2.176-1.69-3.928-1.964c-1.904-0.298-2.726,1.569-3.764-0.164
				c-1.179-2.017,1.229-2.006,0.818-3.764c-0.358-1.527-2.994-1.015-2.946-2.619c0.053-1.778,2.556-1.037,3.437-2.291
				c0.521-1.983-0.118-3.261,0.655-5.401c0.562-1.558,3.136-2.416,2.618-4.255c-0.688-2.448-4.854,0.576-5.728,1.146
				c-8.627,5.625-19.536,10.994-33.878,10.146c-5.318-0.314-10.53-1.411-15.057-2.455c-1.151,1.369-0.987,2.912-1.636,4.091
				c-1.686,3.062-5.745,5.393-9.82,5.728c-1.054,0.086-2.495-0.308-3.764,0c-1.258,0.305-1.52,2.116-3.109,1.964
				c-1.542-1.082,0.229-1.852-0.491-3.437c-0.752-1.654-3.208-0.787-3.273-2.618c-0.073-2.07,2.569-1.807,3.928-2.946
				c0.399-1.771-1.559-1.845-0.818-3.437c0.804-0.783,1.783,0.366,2.946,0.164c0.828-0.144,1.78-1.61,3.109-1.964
				c1.179-0.313,3.724,0.236,3.601-1.146c-0.117-1.312-2.828-0.687-3.764-0.818c-1.964-0.275-3.914-1.472-5.401-1.964
				c-7.124,3.776-21.363,2.099-25.039-3.273c7.604,0.676,14.599-0.675,18.329-4.418c-2.209,0.082-4.173-0.082-4.909-1.473
				c2.564-0.133,4.554-1.05,6.219-2.455c3.228-2.723,5.71-6.588,8.347-9.983c7.979-10.273,17.743-18.24,31.586-22.912
				c-8.651,0.328-14.412,2.599-19.967,6.546c-5.235,3.721-9.921,8.601-15.711,10.802c-5.608,2.131-11.58,0.587-17.021-0.655
				c-2.901-0.663-5.939-1.047-8.183-2.619c6.481-1.58,16.688-0.314,21.111-4.091c2.89-2.467,4.047-8.212-0.163-9.983
				c-1.256-0.528-2.859-0.062-4.419-0.818c-2.623-1.272-4.521-6.635-2.782-9.983c1.824-3.511,7.814-2.712,6.546-8.674
				c-4.06-6.457-15.741-3.656-23.894-3.273c5.445-4.046,12.662-6.322,20.294-8.183H480.367z"/>
		</g>
	</g>
</g>
</svg>
