<?xml version="1.0" encoding="UTF-8" standalone="no"?>
<!-- Created with Inkscape (http://www.inkscape.org/) -->

<svg
   xmlns:dc="http://purl.org/dc/elements/1.1/"
   xmlns:cc="http://creativecommons.org/ns#"
   xmlns:rdf="http://www.w3.org/1999/02/22-rdf-syntax-ns#"
   xmlns:svg="http://www.w3.org/2000/svg"
   xmlns="http://www.w3.org/2000/svg"
   xmlns:sodipodi="http://sodipodi.sourceforge.net/DTD/sodipodi-0.dtd"
   xmlns:inkscape="http://www.inkscape.org/namespaces/inkscape"
   id="svg3355"
   version="1.1"
   inkscape:version="0.91 r13725"
   xml:space="preserve"
   width="1205.9038"
   height="629.12128"
   viewBox="0 0 1205.9038 629.12128"
   sodipodi:docname="andrena.svg"><metadata
     id="metadata3361"><rdf:RDF><cc:Work
         rdf:about=""><dc:format>image/svg+xml</dc:format><dc:type
           rdf:resource="http://purl.org/dc/dcmitype/StillImage" /><dc:title></dc:title></cc:Work></rdf:RDF></metadata><defs
     id="defs3359" /><sodipodi:namedview
     pagecolor="#ffffff"
     bordercolor="#666666"
     borderopacity="1"
     objecttolerance="10"
     gridtolerance="10"
     guidetolerance="10"
     inkscape:pageopacity="0"
     inkscape:pageshadow="2"
     inkscape:window-width="783"
     inkscape:window-height="480"
     id="namedview3357"
     showgrid="false"
     fit-margin-top="50"
     fit-margin-left="50"
     fit-margin-right="50"
     fit-margin-bottom="50"
     inkscape:zoom="0.15519034"
     inkscape:cx="618.39593"
     inkscape:cy="322.1017"
     inkscape:window-x="4480"
     inkscape:window-y="0"
     inkscape:window-maximized="1"
     inkscape:current-layer="g3363" /><g
     id="g3363"
     inkscape:groupmode="layer"
     inkscape:label="ink_ext_XXXXXX"
     transform="matrix(1.25,0,0,-1.25,50,579.12125)"><g
       id="g3365"
       transform="scale(0.1,0.1)"><path
         d="m 339.414,1226.62 c 106.988,0 167.594,99.61 167.594,226.5 0,114.48 -56.781,222.57 -167.328,222.57 -110.582,0 -168.844,-105.57 -168.719,-226.45 -0.258,-120.69 61.621,-222.62 167.551,-222.62 l 0.902,0 z m -4.746,-88.65 c -171.316,0 -279.8242,130.88 -279.8242,308.52 0,186.21 117.6792,317.85 288.7852,317.85 176.937,0 281.297,-133.71 281.297,-307.11 0,-203.11 -123.133,-319.26 -289.36,-319.26 l -0.898,0"
         style="fill:#808080;fill-opacity:1;fill-rule:nonzero;stroke:none"
         id="path3367"
         inkscape:connector-curvature="0" /><path
         d="m 1110.26,1228.39 c 14.45,-2.67 33.15,-3.15 58.63,-3.15 70.87,0 134.64,26.63 134.64,101.48 0,70.49 -62.06,99.41 -138.15,99.51 l -55.12,0 0,-197.84 z m 0,278.16 56.77,0 c 76.86,0 119.57,36.23 119.57,87.5 0,56.97 -43.2,83.15 -112.96,83.15 -32.85,0 -51.44,-2.25 -63.38,-4.86 l 0,-165.79 z m -109.97,239.57 c 35.42,7.24 99.52,13.05 161.74,13.05 81.36,0 132.26,-10.54 173.6,-38.52 37.46,-23.11 62.57,-62.12 62.57,-114.11 0,-55.73 -34.78,-106.61 -100.94,-130.74 l 0,-2.35 c 64.07,-16.24 122.77,-66.71 122.77,-150.24 0,-53.86 -23.31,-95.72 -58.06,-125.23 -43.24,-37.29 -114.26,-55.99 -225.39,-55.99 -61.62,0 -107.54,4.14 -136.29,7.96 l 0,596.17"
         style="fill:#808080;fill-opacity:1;fill-rule:nonzero;stroke:none"
         id="path3369"
         inkscape:connector-curvature="0" /><path
         d="m 1914.74,1732.14 110.86,22.3 0,-393.45 c 0,-167.34 -81.07,-223.02 -201.24,-223.02 -30.75,0 -69.32,5.56 -93,14.33 l 13.61,89.48 c 17.66,-6 41.73,-10.99 68.34,-10.99 63.06,0 101.43,28.5 101.43,133.92 l 0,367.43"
         style="fill:#808080;fill-opacity:1;fill-rule:nonzero;stroke:none"
         id="path3371"
         inkscape:connector-curvature="0" /><path
         d="m 2764.55,1416.96 -228.59,0 0,-177.94 255.59,0 0,-91.15 -366.46,0 0,606.57 353.08,0 0,-91.15 -242.21,0 0,-155.94 228.59,0 0,-90.39"
         style="fill:#808080;fill-opacity:1;fill-rule:nonzero;stroke:none"
         id="path3373"
         inkscape:connector-curvature="0" /><path
         d="m 3590.48,1165.82 c -26.25,-13.1 -83.98,-27.41 -157.43,-27.41 -192.4,0 -309.62,120.84 -309.62,305.56 0,199.42 139.27,319.92 324.72,319.92 72.95,0 124.51,-14.79 146.89,-26.8 l -24.06,-88.33 c -28.27,12.86 -68.65,23.76 -118.28,23.76 -123.62,0 -212.64,-77.23 -212.64,-223.05 0,-133.67 77.92,-218.36 211.2,-218.36 44.8,0 91.62,8.92 120.89,21.98 l 18.33,-87.27"
         style="fill:#808080;fill-opacity:1;fill-rule:nonzero;stroke:none"
         id="path3375"
         inkscape:connector-curvature="0" /><path
         d="m 4103.88,1661.33 -173.19,0 0,93.11 458.9,0 0,-93.11 -174.85,0 0,-513.46 -110.86,0 0,513.46"
         style="fill:#808080;fill-opacity:1;fill-rule:nonzero;stroke:none"
         id="path3377"
         inkscape:connector-curvature="0" /><path
         d="m 4737.68,1268.69 c 35.72,-20.58 90.11,-38.64 146.6,-38.64 70.68,0 110.25,33.22 110.25,82.82 0,45.79 -30.7,72.78 -107.48,100.64 -100.19,35.55 -164.2,89.3 -164.2,176.22 0,99.38 83.07,174.16 214.67,174.16 65.76,0 113.83,-13.98 145.41,-29.98 l -26.5,-89.39 c -21.94,11.47 -64.22,28.8 -121.2,28.8 -70.33,0 -100.17,-37.43 -100.17,-73.09 0,-46.52 35.08,-68.4 116.03,-99.31 105.37,-40.23 156.04,-93.11 156.04,-180.29 0,-97.58 -73.5,-182.22 -230.02,-182.22 -64.2,0 -130.8,18.26 -163.97,38.56 l 24.54,91.72"
         style="fill:#808080;fill-opacity:1;fill-rule:nonzero;stroke:none"
         id="path3379"
         inkscape:connector-curvature="0" /><path
         d="m 681.723,2913.48 -26.953,0 c -234.426,0 -339.512,-64.67 -339.512,-210.18 0,-102.39 72.754,-188.32 167.062,-188.32 82.051,0 151.797,22.8 199.403,45.61 l 0,352.89 z m 312.554,-261.39 c 0,-58.08 3.047,-188.63 8.103,-260.54 C 840.254,2344.63 646.199,2288.34 438.258,2288.34 161.953,2288.34 0,2441.93 0,2684.43 c 0,180.54 72.7422,301.8 220.957,369.16 118.555,53.89 223.637,72.76 439.203,75.45 l 21.563,0 0,65.55 c 0,150.9 -40.422,196.7 -175.145,196.7 -78.148,0 -169.758,-21.56 -291.012,-70.05 -14.507,-5.8 -35.546,-14.58 -42.437,-17.92 l -85.3282,245.87 c 17.3752,8.1 30.7542,14.55 87.3402,36.11 113.179,40.42 242.519,64.67 371.851,64.67 234.434,0 385.317,-88.92 431.129,-250.6 13.477,-48.5 16.156,-91.6 16.156,-169.74 l 0,-577.54"
         style="fill:#004c93;fill-opacity:1;fill-rule:nonzero;stroke:none"
         id="path3381"
         inkscape:connector-curvature="0" /><path
         d="m 8512.06,2913.48 -26.95,0 c -234.42,0 -339.51,-64.67 -339.51,-210.18 0,-102.39 72.75,-188.32 167.07,-188.32 82.05,0 151.79,22.8 199.39,45.61 l 0,352.89 z m 312.56,-261.39 c 0,-58.08 3.05,-188.63 8.1,-260.54 -162.12,-46.92 -356.17,-103.21 -564.12,-103.21 -276.31,0 -438.26,153.59 -438.26,396.09 0,180.54 72.76,301.8 220.96,369.16 118.55,53.89 223.63,72.76 439.2,75.45 l 21.56,0 0,65.55 c 0,150.9 -40.41,196.7 -175.14,196.7 -78.14,0 -169.76,-21.56 -291.01,-70.05 -14.51,-5.8 -35.55,-14.58 -42.44,-17.92 l -85.32,245.87 c 17.37,8.1 30.75,14.55 87.33,36.11 113.18,40.42 242.52,64.67 371.85,64.67 234.44,0 385.32,-88.92 431.14,-250.6 13.47,-48.5 16.15,-91.6 16.15,-169.74 l 0,-577.54"
         style="fill:#004c93;fill-opacity:1;fill-rule:nonzero;stroke:none"
         id="path3383"
         inkscape:connector-curvature="0" /><path
         d="m 3514.52,3355.37 c -64.67,32.33 -123.94,45.81 -188.61,45.81 -164.37,0 -226.34,-113.17 -226.34,-431.13 0,-307.18 67.34,-455.07 215.54,-455.07 78.14,0 140.68,18.56 199.41,45.61 l 0,794.78 z M 3271.05,2288.34 c -339.05,0 -502.92,237.11 -502.92,638.59 0,282.93 45.81,452.68 153.6,582.02 88.91,105.09 199.4,158.99 334.11,158.99 91.63,0 164.37,-21.56 258.68,-75.45 l 0,571.99 282.93,58.53 c 17.36,3.23 39.59,9.96 39.59,9.96 l 0,-1580.88 c 0,-58.08 3.04,-188.63 8.1,-260.54 -103.51,-30.12 -320.51,-103.21 -574.09,-103.21"
         style="fill:#004c93;fill-opacity:1;fill-rule:nonzero;stroke:none"
         id="path3385"
         inkscape:connector-curvature="0" /><path
         d="m 5408.84,3140.63 409.59,0 c -5.39,218.25 -56.6,299.1 -188.64,299.1 -137.42,0 -196.69,-83.54 -220.95,-299.1 z m 752.95,-241.89 -758.32,-0.61 c 5.37,-223.66 96.99,-331.45 288.32,-331.45 99.68,0 199.39,26.95 301.75,80.84 20.77,10.94 44.2,24.45 44.2,24.45 l 105.16,-242.5 c 0,0 -10.55,-7.09 -19.65,-12.77 -23.96,-14.98 -60.35,-33.85 -137.77,-62.89 -107.77,-40.41 -210.18,-59.28 -326.04,-59.28 -379.92,0 -584.72,239.83 -584.72,681.73 0,423.05 226.34,703.28 571.25,703.28 347.57,0 520.06,-239.81 520.06,-714.06 0,-3.92 -4.24,-66.74 -4.24,-66.74"
         style="fill:#004c93;fill-opacity:1;fill-rule:nonzero;stroke:none"
         id="path3387"
         inkscape:connector-curvature="0" /><path
         d="m 4201.58,3446.96 c 164.06,99.42 331.13,222.06 649.06,222.06 49.57,0 94.22,-4.14 134.11,-12.57 l -100.34,-281.8 c -36.44,14.39 -67.14,23.83 -115.39,23.83 -78.14,0 -144.86,-31.39 -230.82,-73.27 l 0,-990.85 -328.51,0 0,852.07 c 0,58.08 -3.05,188.63 -8.11,260.53"
         style="fill:#004c93;fill-opacity:1;fill-rule:nonzero;stroke:none"
         id="path3389"
         inkscape:connector-curvature="0" /><path
         d="m 1369.08,3446.96 c 164.05,99.42 329.31,222.06 647.25,222.06 278.2,0 400.22,-130.43 400.22,-416.05 l 0,-918.61 -330.72,0 0,845.86 c 0,153.59 -46.04,218.26 -151.12,218.26 -78.13,0 -143.05,-31.39 -229.01,-73.27 l 0,-990.85 -328.51,0 0,852.07 c 0,58.08 -3.05,188.63 -8.11,260.53"
         style="fill:#004c93;fill-opacity:1;fill-rule:nonzero;stroke:none"
         id="path3391"
         inkscape:connector-curvature="0" /><path
         d="m 6476.76,3446.96 c 164.04,99.42 329.29,222.06 647.24,222.06 278.21,0 400.22,-130.43 400.22,-416.05 l 0,-918.61 -330.72,0 0,845.86 c 0,153.59 -46.04,218.26 -151.12,218.26 -78.12,0 -143.04,-31.39 -229,-73.27 l 0,-990.85 -328.52,0 0,852.07 c 0,58.08 -3.04,188.63 -8.1,260.53"
         style="fill:#004c93;fill-opacity:1;fill-rule:nonzero;stroke:none"
         id="path3393"
         inkscape:connector-curvature="0" /><path
         d="m 283.203,296.66 -147.476,0 0,-137.308 164.992,0 0,-41.25 -214.7112,0 0,380.816 206.2342,0 0,-41.25 -156.515,0 0,-120.348 147.476,0 0,-40.66"
         style="fill:#808080;fill-opacity:1;fill-rule:nonzero;stroke:none"
         id="path3395"
         inkscape:connector-curvature="0" /><path
         d="m 391.664,391.578 38.988,-58.769 C 441.387,317.551 449.863,304 458.902,288.75 l 1.133,0 c 9.035,15.82 18.078,29.941 27.684,44.629 l 37.855,58.199 54.246,0 -93.226,-132.226 95.484,-141.25 -55.933,0 -40.684,61.578 c -10.734,15.82 -19.777,31.082 -29.383,47.461 l -1.133,0 C 445.906,210.762 436.863,196.07 426.133,179.68 l -39.555,-61.578 -54.805,0 97.18,139.546 -92.664,133.93 55.375,0"
         style="fill:#808080;fill-opacity:1;fill-rule:nonzero;stroke:none"
         id="path3397"
         inkscape:connector-curvature="0" /><path
         d="m 684.898,229.41 c 0,-7.34 0.567,-14.121 2.258,-20.351 9.039,-34.45 38.989,-58.18 74.586,-58.18 52.551,0 83.059,42.922 83.059,105.66 0,54.242 -28.817,101.129 -81.363,101.129 -33.903,0 -66.11,-23.727 -75.153,-61.008 -1.691,-6.23 -3.387,-13.582 -3.387,-19.789 l 0,-47.461 z m -49.16,72.891 c 0,35.019 -1.129,63.277 -2.258,89.277 l 44.075,0 2.82,-46.898 1.133,0 c 19.777,33.32 52.551,52.539 97.183,52.539 66.676,0 116.399,-55.93 116.399,-138.43 0,-98.32 -60.461,-146.898 -124.871,-146.898 -36.16,0 -67.809,15.82 -84.196,42.929 l -1.125,0 0,-148.58953 -49.16,0 0,296.07053"
         style="fill:#808080;fill-opacity:1;fill-rule:nonzero;stroke:none"
         id="path3399"
         inkscape:connector-curvature="0" /><path
         d="m 1136.33,281.379 c 0.56,31.101 -13,80.242 -68.94,80.242 -50.85,0 -72.324,-45.762 -76.277,-80.242 l 145.217,0 z M 990.551,245.801 c 1.129,-67.25 43.509,-94.922 93.799,-94.922 35.59,0 57.63,6.211 75.71,14.121 l 9.04,-35.609 c -17.51,-7.911 -48.03,-17.5 -91.54,-17.5 -84.185,0 -134.474,55.937 -134.474,138.418 0,82.5 48.594,146.91 128.264,146.91 89.84,0 113.01,-77.969 113.01,-128.258 0,-10.172 -0.57,-17.52 -1.7,-23.16 l -192.109,0"
         style="fill:#808080;fill-opacity:1;fill-rule:nonzero;stroke:none"
         id="path3401"
         inkscape:connector-curvature="0" /><path
         d="m 1251.57,306.25 c 0,32.199 -0.56,59.898 -2.25,85.328 l 43.5,0 2.26,-54.258 1.7,0 c 12.43,36.739 42.94,59.899 76.28,59.899 5.08,0 9.04,-0.559 13.56,-1.129 l 0,-46.891 c -5.09,1.129 -10.17,1.129 -16.95,1.129 -35.04,0 -59.89,-26 -66.68,-63.277 -1.13,-6.781 -1.69,-15.262 -1.69,-23.172 l 0,-145.777 -49.73,0 0,188.148"
         style="fill:#808080;fill-opacity:1;fill-rule:nonzero;stroke:none"
         id="path3403"
         inkscape:connector-curvature="0" /><path
         d="m 1501.88,457.129 0,-65.551 71.19,0 0,-37.867 -71.19,0 0,-147.461 c 0,-33.91 9.6,-53.129 37.29,-53.129 13.55,0 21.46,1.129 28.81,3.399 l 2.26,-37.848 c -9.61,-3.402 -24.86,-6.781 -44.07,-6.781 -23.17,0 -41.81,7.91 -53.68,20.898 -13.56,15.25 -19.21,39.551 -19.21,71.762 l 0,149.16 -42.38,0 0,37.867 42.38,0 0,50.844 48.6,14.707"
         style="fill:#808080;fill-opacity:1;fill-rule:nonzero;stroke:none"
         id="path3405"
         inkscape:connector-curvature="0" /><path
         d="m 1627.86,168.379 c 15.26,-9.027 41.25,-19.199 66.11,-19.199 35.6,0 52.55,17.519 52.55,40.679 0,23.731 -14.13,36.149 -50.29,49.731 -49.72,18.058 -72.89,44.629 -72.89,77.398 0,44.082 36.16,80.231 94.36,80.231 27.69,0 51.98,-7.34 66.68,-16.949 l -11.87,-36.149 c -10.74,6.77 -30.51,16.379 -55.94,16.379 -29.38,0 -45.2,-16.949 -45.2,-37.301 0,-22.597 15.82,-32.769 51.42,-46.898 46.89,-17.512 71.76,-41.25 71.76,-81.93 0,-48.59 -37.86,-82.48 -101.71,-82.48 -29.95,0 -57.63,7.91 -76.84,19.199 l 11.86,37.289"
         style="fill:#808080;fill-opacity:1;fill-rule:nonzero;stroke:none"
         id="path3407"
         inkscape:connector-curvature="0" /><path
         d="m 1970.64,118.102 0,273.476 49.73,0 0,-273.476 -49.73,0 z m 55.38,350.308 c 0,-16.949 -11.87,-30.5 -31.64,-30.5 -18.09,0 -29.95,13.551 -29.95,30.5 0,16.961 12.43,31.078 31.07,31.078 18.08,0 30.52,-13.558 30.52,-31.078"
         style="fill:#808080;fill-opacity:1;fill-rule:nonzero;stroke:none"
         id="path3409"
         inkscape:connector-curvature="0" /><path
         d="m 2108.5,317.551 c 0,28.808 -0.57,51.429 -2.26,74.027 l 44.07,0 2.82,-45.219 1.14,0 c 13.56,25.43 45.2,50.86 90.4,50.86 37.86,0 96.62,-22.59 96.62,-116.379 l 0,-162.738 -49.72,0 0,157.636 c 0,44.082 -16.38,80.801 -63.28,80.801 -32.21,0 -57.64,-23.16 -66.68,-50.859 -2.26,-6.211 -3.39,-14.692 -3.39,-23.16 l 0,-164.418 -49.72,0 0,199.449"
         style="fill:#808080;fill-opacity:1;fill-rule:nonzero;stroke:none"
         id="path3411"
         inkscape:connector-curvature="0" /><path
         d="m 2678.41,257.648 c -54.24,1.141 -115.83,-8.468 -115.83,-61.578 0,-32.769 21.47,-47.461 46.33,-47.461 36.16,0 59.33,22.602 67.24,45.762 1.7,5.668 2.26,11.309 2.26,15.82 l 0,47.457 z m 48.03,-74 c 0,-23.726 1.13,-46.918 3.96,-65.546 l -44.64,0 -3.96,34.449 -1.69,0 c -15.26,-21.461 -44.64,-40.66 -83.63,-40.66 -55.37,0 -83.62,38.988 -83.62,78.539 0,66.109 58.76,102.261 164.42,101.699 l 0,5.641 c 0,22.05 -6.22,63.3 -62.15,62.73 -25.99,0 -52.55,-7.34 -71.76,-20.352 l -11.3,33.34 c 22.6,14.121 55.94,23.731 90.41,23.731 83.62,0 103.96,-57.071 103.96,-111.309 l 0,-102.262"
         style="fill:#808080;fill-opacity:1;fill-rule:nonzero;stroke:none"
         id="path3413"
         inkscape:connector-curvature="0" /><path
         d="m 2996.51,283.648 c 0,8.481 -0.57,15.821 -2.83,22.032 -9.04,29.39 -32.77,53.121 -69.5,53.121 -47.46,0 -81.36,-40.11 -81.36,-103.391 0,-53.691 27.69,-98.32 80.8,-98.32 31.08,0 58.76,19.211 68.93,50.859 2.83,8.469 3.96,18.059 3.96,26.539 l 0,49.16 z m 49.72,-125.429 c 0,-63.2776 -13,-101.1487 -38.99,-125.4495 C 2980.12,8.46875 2941.7,0 2907.23,0 c -32.77,0 -68.93,7.91016 -90.97,22.6094 l 12.43,38.4219 C 2846.77,49.1602 2875.02,39 2908.93,39 c 50.85,0 88.14,26.5391 88.14,96.051 l 0,29.949 -1.13,0 c -14.69,-25.43 -44.64,-45.77 -87.01,-45.77 -67.81,0 -116.4,57.622 -116.4,133.34 0,92.66 60.46,144.649 123.74,144.649 47.47,0 72.89,-24.289 85.32,-46.891 l 1.13,0 1.7,41.25 44.07,0 c -1.69,-19.219 -2.26,-41.82 -2.26,-74.59 l 0,-158.769"
         style="fill:#808080;fill-opacity:1;fill-rule:nonzero;stroke:none"
         id="path3415"
         inkscape:connector-curvature="0" /><path
         d="m 3133.78,118.102 0,273.476 49.73,0 0,-273.476 -49.73,0 z m 55.38,350.308 c 0,-16.949 -11.87,-30.5 -31.64,-30.5 -18.08,0 -29.95,13.551 -29.95,30.5 0,16.961 12.43,31.078 31.08,31.078 18.08,0 30.51,-13.558 30.51,-31.078"
         style="fill:#808080;fill-opacity:1;fill-rule:nonzero;stroke:none"
         id="path3417"
         inkscape:connector-curvature="0" /><path
         d="m 3271.65,118.102 49.7227,0 0,401.168 -49.7227,0 0,-401.168 z"
         style="fill:#808080;fill-opacity:1;fill-rule:nonzero;stroke:none"
         id="path3419"
         inkscape:connector-curvature="0" /><path
         d="m 3584.1,281.379 c 0.56,31.101 -13,80.242 -68.94,80.242 -50.85,0 -72.32,-45.762 -76.28,-80.242 l 145.22,0 z m -145.78,-35.578 c 1.13,-67.25 43.51,-94.922 93.79,-94.922 35.6,0 57.64,6.211 75.72,14.121 l 9.04,-35.609 c -17.51,-7.911 -48.03,-17.5 -91.54,-17.5 -84.19,0 -134.48,55.937 -134.48,138.418 0,82.5 48.6,146.91 128.27,146.91 89.84,0 113,-77.969 113,-128.258 0,-10.172 -0.56,-17.52 -1.69,-23.16 l -192.11,0"
         style="fill:#808080;fill-opacity:1;fill-rule:nonzero;stroke:none"
         id="path3421"
         inkscape:connector-curvature="0" /><path
         d="m 3799.17,168.379 c 15.26,-9.027 41.25,-19.199 66.11,-19.199 35.6,0 52.55,17.519 52.55,40.679 0,23.731 -14.12,36.149 -50.29,49.731 -49.72,18.058 -72.89,44.629 -72.89,77.398 0,44.082 36.17,80.231 94.36,80.231 27.69,0 51.99,-7.34 66.68,-16.949 l -11.87,-36.149 c -10.73,6.77 -30.51,16.379 -55.93,16.379 -29.39,0 -45.21,-16.949 -45.21,-37.301 0,-22.597 15.82,-32.769 51.42,-46.898 46.9,-17.512 71.76,-41.25 71.76,-81.93 0,-48.59 -37.86,-82.48 -101.71,-82.48 -29.95,0 -57.63,7.91 -76.84,19.199 l 11.86,37.289"
         style="fill:#808080;fill-opacity:1;fill-rule:nonzero;stroke:none"
         id="path3423"
         inkscape:connector-curvature="0" /><path
         d="m 4066.42,254.27 c 0,-59.899 33.9,-105.09 82.5,-105.09 47.46,0 83.06,44.621 83.06,106.23 0,46.32 -23.17,104.531 -81.94,104.531 -58.19,0 -83.62,-54.261 -83.62,-105.671 z m 216.41,2.82 c 0,-101.141 -70.63,-145.199 -136.17,-145.199 -73.46,0 -131.09,54.238 -131.09,140.679 0,90.981 60.46,144.649 135.61,144.649 78.54,0 131.65,-57.071 131.65,-140.129"
         style="fill:#808080;fill-opacity:1;fill-rule:nonzero;stroke:none"
         id="path3425"
         inkscape:connector-curvature="0" /><path
         d="m 4356.26,118.102 0,235.609 -37.86,0 0,37.867 37.86,0 0,12.992 c 0,38.41 9.04,73.45 31.64,95.481 18.65,18.09 43.51,25.429 66.68,25.429 18.08,0 32.77,-3.941 42.37,-7.91 l -6.78,-38.41 c -7.34,3.379 -16.95,6.211 -31.64,6.211 -42.38,0 -53.11,-36.723 -53.11,-79.101 l 0,-14.692 66.11,0 0,-37.867 -66.11,0 0,-235.609 -49.16,0"
         style="fill:#808080;fill-opacity:1;fill-rule:nonzero;stroke:none"
         id="path3427"
         inkscape:connector-curvature="0" /><path
         d="m 4581.69,457.129 0,-65.551 71.2,0 0,-37.867 -71.2,0 0,-147.461 c 0,-33.91 9.61,-53.129 37.29,-53.129 13.56,0 21.47,1.129 28.82,3.399 l 2.26,-37.848 c -9.61,-3.402 -24.86,-6.781 -44.07,-6.781 -23.17,0 -41.82,7.91 -53.68,20.898 -13.56,15.25 -19.21,39.551 -19.21,71.762 l 0,149.16 -42.38,0 0,37.867 42.38,0 0,50.844 48.59,14.707"
         style="fill:#808080;fill-opacity:1;fill-rule:nonzero;stroke:none"
         id="path3429"
         inkscape:connector-curvature="0" /><path
         d="m 4734.24,391.578 36.73,-139.008 c 7.34,-30.5 14.68,-58.769 19.77,-87.011 l 1.69,0 c 6.22,27.679 15.27,57.07 24.3,86.453 l 44.64,139.566 41.81,0 42.38,-136.738 c 10.17,-32.77 18.08,-61.602 24.29,-89.281 l 1.7,0 c 4.52,27.679 11.87,56.511 20.91,88.711 l 38.99,137.308 49.16,0 -88.15,-273.476 -45.2,0 -41.82,130.527 c -9.6,30.512 -17.51,57.621 -24.3,89.82 l -1.12,0 c -6.79,-32.769 -15.26,-61.008 -24.86,-90.39 l -44.08,-129.957 -45.2,0 -82.5,273.476 50.86,0"
         style="fill:#808080;fill-opacity:1;fill-rule:nonzero;stroke:none"
         id="path3431"
         inkscape:connector-curvature="0" /><path
         d="m 5280.04,257.648 c -54.25,1.141 -115.83,-8.468 -115.83,-61.578 0,-32.769 21.46,-47.461 46.33,-47.461 36.16,0 59.32,22.602 67.23,45.762 1.7,5.668 2.27,11.309 2.27,15.82 l 0,47.457 z m 48.03,-74 c 0,-23.726 1.13,-46.918 3.95,-65.546 l -44.64,0 -3.95,34.449 -1.7,0 c -15.26,-21.461 -44.63,-40.66 -83.62,-40.66 -55.38,0 -83.63,38.988 -83.63,78.539 0,66.109 58.76,102.261 164.43,101.699 l 0,5.641 c 0,22.05 -6.21,63.3 -62.15,62.73 -26,0 -52.55,-7.34 -71.77,-20.352 l -11.3,33.34 c 22.61,14.121 55.94,23.731 90.41,23.731 83.62,0 103.97,-57.071 103.97,-111.309 l 0,-102.262"
         style="fill:#808080;fill-opacity:1;fill-rule:nonzero;stroke:none"
         id="path3433"
         inkscape:connector-curvature="0" /><path
         d="m 5413.93,306.25 c 0,32.199 -0.57,59.898 -2.27,85.328 l 43.51,0 2.26,-54.258 1.69,0 c 12.43,36.739 42.95,59.899 76.29,59.899 5.08,0 9.03,-0.559 13.55,-1.129 l 0,-46.891 c -5.08,1.129 -10.16,1.129 -16.95,1.129 -35.03,0 -59.89,-26 -66.67,-63.277 -1.13,-6.781 -1.7,-15.262 -1.7,-23.172 l 0,-145.777 -49.71,0 0,188.148"
         style="fill:#808080;fill-opacity:1;fill-rule:nonzero;stroke:none"
         id="path3435"
         inkscape:connector-curvature="0" /><path
         d="m 5777.8,281.379 c 0.56,31.101 -13,80.242 -68.93,80.242 -50.86,0 -72.33,-45.762 -76.28,-80.242 l 145.21,0 z m -145.78,-35.578 c 1.13,-67.25 43.51,-94.922 93.8,-94.922 35.6,0 57.63,6.211 75.71,14.121 l 9.04,-35.609 c -17.51,-7.911 -48.03,-17.5 -91.54,-17.5 -84.19,0 -134.47,55.937 -134.47,138.418 0,82.5 48.59,146.91 128.26,146.91 89.84,0 113.01,-77.969 113.01,-128.258 0,-10.172 -0.57,-17.52 -1.7,-23.16 l -192.11,0"
         style="fill:#808080;fill-opacity:1;fill-rule:nonzero;stroke:none"
         id="path3437"
         inkscape:connector-curvature="0" /><path
         d="m 6173.12,281.379 c 0.55,31.101 -13,80.242 -68.94,80.242 -50.86,0 -72.32,-45.762 -76.28,-80.242 l 145.22,0 z m -145.79,-35.578 c 1.14,-67.25 43.51,-94.922 93.8,-94.922 35.6,0 57.63,6.211 75.72,14.121 l 9.03,-35.609 c -17.51,-7.911 -48.03,-17.5 -91.53,-17.5 -84.19,0 -134.48,55.937 -134.48,138.418 0,82.5 48.6,146.91 128.26,146.91 89.84,0 113.01,-77.969 113.01,-128.258 0,-10.172 -0.56,-17.52 -1.7,-23.16 l -192.11,0"
         style="fill:#808080;fill-opacity:1;fill-rule:nonzero;stroke:none"
         id="path3439"
         inkscape:connector-curvature="0" /><path
         d="m 6288.36,317.551 c 0,28.808 -0.57,51.429 -2.27,74.027 l 44.08,0 2.83,-45.219 1.12,0 c 13.57,25.43 45.21,50.86 90.41,50.86 37.85,0 96.62,-22.59 96.62,-116.379 l 0,-162.738 -49.72,0 0,157.636 c 0,44.082 -16.39,80.801 -63.29,80.801 -32.2,0 -57.63,-23.16 -66.67,-50.859 -2.26,-6.211 -3.39,-14.692 -3.39,-23.16 l 0,-164.418 -49.72,0 0,199.449"
         style="fill:#808080;fill-opacity:1;fill-rule:nonzero;stroke:none"
         id="path3441"
         inkscape:connector-curvature="0" /><path
         d="m 6791.79,283.648 c 0,8.481 -0.57,15.821 -2.83,22.032 -9.04,29.39 -32.77,53.121 -69.5,53.121 -47.46,0 -81.36,-40.11 -81.36,-103.391 0,-53.691 27.68,-98.32 80.8,-98.32 31.07,0 58.76,19.211 68.93,50.859 2.82,8.469 3.96,18.059 3.96,26.539 l 0,49.16 z m 49.72,-125.429 c 0,-63.2776 -12.99,-101.1487 -38.99,-125.4495 C 6775.4,8.46875 6736.98,0 6702.51,0 c -32.77,0 -68.94,7.91016 -90.97,22.6094 l 12.43,38.4219 C 6642.05,49.1602 6670.3,39 6704.21,39 c 50.85,0 88.14,26.5391 88.14,96.051 l 0,29.949 -1.13,0 c -14.69,-25.43 -44.64,-45.77 -87.01,-45.77 -67.8,0 -116.4,57.622 -116.4,133.34 0,92.66 60.46,144.649 123.74,144.649 47.46,0 72.89,-24.289 85.33,-46.891 l 1.12,0 1.7,41.25 44.07,0 c -1.7,-19.219 -2.26,-41.82 -2.26,-74.59 l 0,-158.769"
         style="fill:#808080;fill-opacity:1;fill-rule:nonzero;stroke:none"
         id="path3443"
         inkscape:connector-curvature="0" /><path
         d="m 6929.06,118.102 0,273.476 49.72,0 0,-273.476 -49.72,0 z m 55.37,350.308 c 0,-16.949 -11.86,-30.5 -31.64,-30.5 -18.08,0 -29.95,13.551 -29.95,30.5 0,16.961 12.43,31.078 31.09,31.078 18.07,0 30.5,-13.558 30.5,-31.078"
         style="fill:#808080;fill-opacity:1;fill-rule:nonzero;stroke:none"
         id="path3445"
         inkscape:connector-curvature="0" /><path
         d="m 7066.92,317.551 c 0,28.808 -0.56,51.429 -2.26,74.027 l 44.07,0 2.83,-45.219 1.13,0 c 13.56,25.43 45.2,50.86 90.41,50.86 37.85,0 96.62,-22.59 96.62,-116.379 l 0,-162.738 -49.73,0 0,157.636 c 0,44.082 -16.39,80.801 -63.28,80.801 -32.21,0 -57.64,-23.16 -66.67,-50.859 -2.27,-6.211 -3.4,-14.692 -3.4,-23.16 l 0,-164.418 -49.72,0 0,199.449"
         style="fill:#808080;fill-opacity:1;fill-rule:nonzero;stroke:none"
         id="path3447"
         inkscape:connector-curvature="0" /><path
         d="m 7559.61,281.379 c 0.56,31.101 -13,80.242 -68.94,80.242 -50.86,0 -72.32,-45.762 -76.28,-80.242 l 145.22,0 z m -145.78,-35.578 c 1.13,-67.25 43.5,-94.922 93.79,-94.922 35.6,0 57.63,6.211 75.72,14.121 l 9.03,-35.609 c -17.51,-7.911 -48.02,-17.5 -91.53,-17.5 -84.19,0 -134.47,55.937 -134.47,138.418 0,82.5 48.59,146.91 128.26,146.91 89.83,0 113.01,-77.969 113.01,-128.258 0,-10.172 -0.57,-17.52 -1.7,-23.16 l -192.11,0"
         style="fill:#808080;fill-opacity:1;fill-rule:nonzero;stroke:none"
         id="path3449"
         inkscape:connector-curvature="0" /><path
         d="m 7848.32,281.379 c 0.56,31.101 -13,80.242 -68.94,80.242 -50.85,0 -72.32,-45.762 -76.27,-80.242 l 145.21,0 z m -145.78,-35.578 c 1.13,-67.25 43.5,-94.922 93.79,-94.922 35.6,0 57.63,6.211 75.72,14.121 l 9.03,-35.609 c -17.51,-7.911 -48.02,-17.5 -91.53,-17.5 -84.19,0 -134.47,55.937 -134.47,138.418 0,82.5 48.59,146.91 128.26,146.91 89.83,0 113.01,-77.969 113.01,-128.258 0,-10.172 -0.57,-17.52 -1.7,-23.16 l -192.11,0"
         style="fill:#808080;fill-opacity:1;fill-rule:nonzero;stroke:none"
         id="path3451"
         inkscape:connector-curvature="0" /><path
         d="m 7963.55,306.25 c 0,32.199 -0.56,59.898 -2.26,85.328 l 43.5,0 2.27,-54.258 1.69,0 c 12.43,36.739 42.95,59.899 76.29,59.899 5.08,0 9.03,-0.559 13.55,-1.129 l 0,-46.891 c -5.08,1.129 -10.16,1.129 -16.95,1.129 -35.03,0 -59.89,-26 -66.67,-63.277 -1.13,-6.781 -1.7,-15.262 -1.7,-23.172 l 0,-145.777 -49.72,0 0,188.148"
         style="fill:#808080;fill-opacity:1;fill-rule:nonzero;stroke:none"
         id="path3453"
         inkscape:connector-curvature="0" /><path
         d="m 8153.96,118.102 0,273.476 49.72,0 0,-273.476 -49.72,0 z m 55.38,350.308 c 0,-16.949 -11.87,-30.5 -31.64,-30.5 -18.09,0 -29.96,13.551 -29.96,30.5 0,16.961 12.44,31.078 31.09,31.078 18.07,0 30.51,-13.558 30.51,-31.078"
         style="fill:#808080;fill-opacity:1;fill-rule:nonzero;stroke:none"
         id="path3455"
         inkscape:connector-curvature="0" /><path
         d="m 8291.82,317.551 c 0,28.808 -0.57,51.429 -2.27,74.027 l 44.07,0 2.84,-45.219 1.12,0 c 13.56,25.43 45.2,50.86 90.41,50.86 37.85,0 96.62,-22.59 96.62,-116.379 l 0,-162.738 -49.73,0 0,157.636 c 0,44.082 -16.38,80.801 -63.28,80.801 -32.21,0 -57.64,-23.16 -66.67,-50.859 -2.26,-6.211 -3.4,-14.692 -3.4,-23.16 l 0,-164.418 -49.71,0 0,199.449"
         style="fill:#808080;fill-opacity:1;fill-rule:nonzero;stroke:none"
         id="path3457"
         inkscape:connector-curvature="0" /><path
         d="m 8795.24,283.648 c 0,8.481 -0.56,15.821 -2.82,22.032 -9.04,29.39 -32.77,53.121 -69.5,53.121 -47.46,0 -81.37,-40.11 -81.37,-103.391 0,-53.691 27.69,-98.32 80.8,-98.32 31.08,0 58.76,19.211 68.94,50.859 2.82,8.469 3.95,18.059 3.95,26.539 l 0,49.16 z m 49.73,-125.429 c 0,-63.2776 -13,-101.1487 -38.99,-125.4495 C 8778.86,8.46875 8740.44,0 8705.97,0 8673.19,0 8637.03,7.91016 8615,22.6094 l 12.43,38.4219 C 8645.51,49.1602 8673.76,39 8707.67,39 c 50.85,0 88.14,26.5391 88.14,96.051 l 0,29.949 -1.13,0 c -14.69,-25.43 -44.64,-45.77 -87.01,-45.77 -67.81,0 -116.4,57.622 -116.4,133.34 0,92.66 60.46,144.649 123.74,144.649 47.46,0 72.89,-24.289 85.32,-46.891 l 1.13,0 1.69,41.25 44.08,0 c -1.7,-19.219 -2.26,-41.82 -2.26,-74.59 l 0,-158.769"
         style="fill:#808080;fill-opacity:1;fill-rule:nonzero;stroke:none"
         id="path3459"
         inkscape:connector-curvature="0" /></g></g></svg>