<?xml version="1.0" encoding="UTF-8" standalone="no"?>
<!-- Created with Inkscape (http://www.inkscape.org/) -->

<svg
   xmlns:dc="http://purl.org/dc/elements/1.1/"
   xmlns:cc="http://creativecommons.org/ns#"
   xmlns:rdf="http://www.w3.org/1999/02/22-rdf-syntax-ns#"
   xmlns:svg="http://www.w3.org/2000/svg"
   xmlns="http://www.w3.org/2000/svg"
   xmlns:sodipodi="http://sodipodi.sourceforge.net/DTD/sodipodi-0.dtd"
   xmlns:inkscape="http://www.inkscape.org/namespaces/inkscape"
   id="svg4155"
   version="1.1"
   inkscape:version="0.91 r13725"
   xml:space="preserve"
   width="1104.0875"
   height="386.875"
   viewBox="0 0 1104.0875 386.875"
   sodipodi:docname="andrena.svg"><metadata
     id="metadata4161"><rdf:RDF><cc:Work
         rdf:about=""><dc:format>image/svg+xml</dc:format><dc:type
           rdf:resource="http://purl.org/dc/dcmitype/StillImage" /><dc:title></dc:title></cc:Work></rdf:RDF></metadata><defs
     id="defs4159" /><sodipodi:namedview
     pagecolor="#ffffff"
     bordercolor="#666666"
     borderopacity="1"
     objecttolerance="10"
     gridtolerance="10"
     guidetolerance="10"
     inkscape:pageopacity="0"
     inkscape:pageshadow="2"
     inkscape:window-width="640"
     inkscape:window-height="480"
     id="namedview4157"
     showgrid="false"
     inkscape:zoom="0.81720718"
     inkscape:cx="607.74915"
     inkscape:cy="240.21767"
     inkscape:current-layer="g4165" /><g
     id="g4163"
     inkscape:groupmode="layer"
     inkscape:label="ink_ext_XXXXXX"
     transform="matrix(1.25,0,0,-1.25,0,386.875)"><g
       id="g4165"
       transform="scale(0.1,0.1)"><path
         d="m 339.414,88.6484 c 106.988,0 167.594,99.6136 167.594,226.4996 0,114.481 -56.781,222.571 -167.328,222.571 C 229.098,537.719 170.836,432.148 170.961,311.27 170.703,190.582 232.582,88.6484 338.512,88.6484 l 0.902,0 z M 334.668,0 C 163.352,0 54.8438,130.879 54.8438,308.52 c 0,186.21 117.6792,317.851 288.7852,317.851 176.937,0 281.297,-133.711 281.297,-307.109 C 624.926,116.148 501.793,0 335.566,0 l -0.898,0"
         style="fill:#ffffff;fill-opacity:1;fill-rule:nonzero;stroke:none"
         id="path4167"
         inkscape:connector-curvature="0" /><path
         d="m 1110.26,90.4219 c 14.45,-2.6719 33.15,-3.1524 58.63,-3.1524 70.87,0 134.64,26.6285 134.64,101.4805 0,70.492 -62.06,99.41 -138.15,99.512 l -55.12,0 0,-197.8401 z m 0,278.1601 56.77,0 c 76.86,0 119.57,36.227 119.57,87.5 0,56.969 -43.2,83.148 -112.96,83.148 -32.85,0 -51.44,-2.25 -63.38,-4.859 l 0,-165.789 z m -109.97,239.566 c 35.42,7.243 99.52,13.051 161.74,13.051 81.36,0 132.26,-10.539 173.6,-38.519 37.46,-23.11 62.57,-62.121 62.57,-114.11 0,-55.73 -34.78,-106.609 -100.94,-130.742 l 0,-2.348 c 64.07,-16.238 122.77,-66.71 122.77,-150.242 0,-53.859 -23.31,-95.7185 -58.06,-125.2263 -43.24,-37.2929 -114.26,-55.99217 -225.39,-55.99217 -61.62,0 -107.54,4.14063 -136.29,7.96097 l 0,596.1675"
         style="fill:#ffffff;fill-opacity:1;fill-rule:nonzero;stroke:none"
         id="path4169"
         inkscape:connector-curvature="0" /><path
         d="m 1914.74,594.172 110.86,22.297 0,-393.449 C 2025.6,55.6797 1944.53,0 1824.36,0 c -30.75,0 -69.32,5.55859 -93,14.332 l 13.61,89.477 c 17.66,-6.0004 41.73,-10.9887 68.34,-10.9887 63.06,0 101.43,28.4997 101.43,133.9217 l 0,367.43"
         style="fill:#ffffff;fill-opacity:1;fill-rule:nonzero;stroke:none"
         id="path4171"
         inkscape:connector-curvature="0" /><path
         d="m 2764.55,278.988 -228.59,0 0,-177.937 255.59,0 0,-91.15256 -366.46,0 0,606.57056 353.08,0 0,-91.149 -242.21,0 0,-155.941 228.59,0 0,-90.391"
         style="fill:#ffffff;fill-opacity:1;fill-rule:nonzero;stroke:none"
         id="path4173"
         inkscape:connector-curvature="0" /><path
         d="M 3590.48,27.8516 C 3564.23,14.75 3506.5,0.441406 3433.05,0.441406 3240.65,0.441406 3123.43,121.281 3123.43,306 c 0,199.422 139.27,319.922 324.72,319.922 72.95,0 124.51,-14.793 146.89,-26.801 l -24.06,-88.332 c -28.27,12.859 -68.65,23.762 -118.28,23.762 -123.62,0 -212.64,-77.231 -212.64,-223.051 0,-133.672 77.92,-218.3594 211.2,-218.3594 44.8,0 91.62,8.9184 120.89,21.9804 l 18.33,-87.2694"
         style="fill:#ffffff;fill-opacity:1;fill-rule:nonzero;stroke:none"
         id="path4175"
         inkscape:connector-curvature="0" /><path
         d="m 4103.88,523.359 -173.19,0 0,93.11 458.9,0 0,-93.11 -174.85,0 0,-513.46056 -110.86,0 0,513.46056"
         style="fill:#ffffff;fill-opacity:1;fill-rule:nonzero;stroke:none"
         id="path4177"
         inkscape:connector-curvature="0" /><path
         d="m 4737.68,130.719 c 35.72,-20.578 90.11,-38.637 146.6,-38.637 70.68,0 110.25,33.219 110.25,82.816 0,45.793 -30.7,72.782 -107.48,100.641 -100.19,35.551 -164.2,89.301 -164.2,176.223 0,99.379 83.07,174.16 214.67,174.16 65.76,0 113.83,-13.981 145.41,-29.981 l -26.5,-89.39 c -21.94,11.469 -64.22,28.801 -121.2,28.801 -70.33,0 -100.17,-37.43 -100.17,-73.09 0,-46.524 35.08,-68.403 116.03,-99.313 105.37,-40.23 156.04,-93.109 156.04,-180.289 0,-97.578 -73.5,-182.218594 -230.02,-182.218594 -64.2,0 -130.8,18.257794 -163.97,38.558594 l 24.54,91.719"
         style="fill:#ffffff;fill-opacity:1;fill-rule:nonzero;stroke:none"
         id="path4179"
         inkscape:connector-curvature="0" /><g
         id="g4195"
         transform="translate(0,-575.185)"><path
           inkscape:connector-curvature="0"
           id="path4181"
           style="fill:#1c4f9c;fill-opacity:1;fill-rule:nonzero;stroke:none"
           d="m 681.723,1775.51 -26.953,0 c -234.426,0 -339.512,-64.67 -339.512,-210.18 0,-102.39 72.754,-188.32 167.062,-188.32 82.051,0 151.797,22.8 199.403,45.61 l 0,352.89 z m 312.554,-261.39 c 0,-58.08 3.047,-188.63 8.103,-260.54 C 840.254,1206.66 646.199,1150.37 438.258,1150.37 161.953,1150.37 0,1303.96 0,1546.46 c 0,180.54 72.7422,301.8 220.957,369.16 118.555,53.89 223.637,72.76 439.203,75.45 l 21.563,0 0,65.55 c 0,150.9 -40.422,196.7 -175.145,196.7 -78.148,0 -169.758,-21.56 -291.012,-70.05 -14.507,-5.8 -35.546,-14.58 -42.437,-17.92 l -85.3282,245.87 c 17.3752,8.1 30.7542,14.55 87.3402,36.12 113.179,40.41 242.519,64.66 371.851,64.66 234.434,0 385.317,-88.92 431.129,-250.61 13.477,-48.49 16.156,-91.59 16.156,-169.73 l 0,-577.54" /><path
           inkscape:connector-curvature="0"
           id="path4183"
           style="fill:#1c4f9c;fill-opacity:1;fill-rule:nonzero;stroke:none"
           d="m 8512.06,1775.51 -26.95,0 c -234.42,0 -339.51,-64.67 -339.51,-210.18 0,-102.39 72.75,-188.32 167.07,-188.32 82.05,0 151.79,22.8 199.39,45.61 l 0,352.89 z m 312.56,-261.39 c 0,-58.08 3.05,-188.63 8.1,-260.54 -162.12,-46.92 -356.17,-103.21 -564.12,-103.21 -276.31,0 -438.26,153.59 -438.26,396.09 0,180.54 72.76,301.8 220.96,369.16 118.55,53.89 223.63,72.76 439.2,75.45 l 21.56,0 0,65.55 c 0,150.9 -40.41,196.7 -175.14,196.7 -78.14,0 -169.76,-21.56 -291.01,-70.05 -14.51,-5.8 -35.55,-14.58 -42.44,-17.92 l -85.32,245.87 c 17.37,8.1 30.75,14.55 87.33,36.12 113.18,40.41 242.52,64.66 371.85,64.66 234.44,0 385.32,-88.92 431.14,-250.61 13.47,-48.49 16.15,-91.59 16.15,-169.73 l 0,-577.54" /><path
           inkscape:connector-curvature="0"
           id="path4185"
           style="fill:#1c4f9c;fill-opacity:1;fill-rule:nonzero;stroke:none"
           d="m 3514.52,2217.4 c -64.67,32.33 -123.94,45.81 -188.61,45.81 -164.37,0 -226.34,-113.17 -226.34,-431.13 0,-307.18 67.34,-455.07 215.54,-455.07 78.14,0 140.68,18.56 199.41,45.61 l 0,794.78 z M 3271.05,1150.37 c -339.05,0 -502.92,237.11 -502.92,638.59 0,282.93 45.81,452.68 153.6,582.02 88.91,105.08 199.4,158.99 334.11,158.99 91.63,0 164.37,-21.56 258.68,-75.45 l 0,572 282.93,58.52 c 17.36,3.23 39.59,9.96 39.59,9.96 l 0,-1580.88 c 0,-58.08 3.04,-188.63 8.1,-260.54 -103.51,-30.12 -320.51,-103.21 -574.09,-103.21" /><path
           inkscape:connector-curvature="0"
           id="path4187"
           style="fill:#1c4f9c;fill-opacity:1;fill-rule:nonzero;stroke:none"
           d="m 5408.84,2002.66 409.59,0 c -5.39,218.25 -56.6,299.1 -188.64,299.1 -137.42,0 -196.69,-83.54 -220.95,-299.1 z m 752.95,-241.89 -758.32,-0.61 c 5.37,-223.66 96.99,-331.45 288.32,-331.45 99.68,0 199.39,26.95 301.75,80.84 20.77,10.94 44.2,24.45 44.2,24.45 l 105.16,-242.5 c 0,0 -10.55,-7.09 -19.65,-12.77 -23.96,-14.98 -60.35,-33.85 -137.77,-62.89 -107.77,-40.41 -210.18,-59.28 -326.04,-59.28 -379.92,0 -584.72,239.83 -584.72,681.73 0,423.05 226.34,703.28 571.25,703.28 347.57,0 520.06,-239.81 520.06,-714.06 0,-3.92 -4.24,-66.74 -4.24,-66.74" /><path
           inkscape:connector-curvature="0"
           id="path4189"
           style="fill:#1c4f9c;fill-opacity:1;fill-rule:nonzero;stroke:none"
           d="m 4201.58,2309 c 164.06,99.41 331.13,222.05 649.06,222.05 49.57,0 94.22,-4.15 134.11,-12.57 l -100.34,-281.8 c -36.44,14.38 -67.14,23.83 -115.39,23.83 -78.14,0 -144.86,-31.39 -230.82,-73.26 l 0,-990.86 -328.51,0 0,852.07 c 0,58.08 -3.05,188.63 -8.11,260.54" /><path
           inkscape:connector-curvature="0"
           id="path4191"
           style="fill:#1c4f9c;fill-opacity:1;fill-rule:nonzero;stroke:none"
           d="m 1369.08,2309 c 164.05,99.41 329.31,222.05 647.25,222.05 278.2,0 400.22,-130.42 400.22,-416.05 l 0,-918.61 -330.72,0 0,845.86 c 0,153.59 -46.04,218.26 -151.12,218.26 -78.13,0 -143.05,-31.39 -229.01,-73.26 l 0,-990.86 -328.51,0 0,852.07 c 0,58.08 -3.05,188.63 -8.11,260.54" /><path
           inkscape:connector-curvature="0"
           id="path4193"
           style="fill:#1c4f9c;fill-opacity:1;fill-rule:nonzero;stroke:none"
           d="m 6476.76,2309 c 164.04,99.41 329.29,222.05 647.24,222.05 278.21,0 400.22,-130.42 400.22,-416.05 l 0,-918.61 -330.72,0 0,845.86 c 0,153.59 -46.04,218.26 -151.12,218.26 -78.12,0 -143.04,-31.39 -229,-73.26 l 0,-990.86 -328.52,0 0,852.07 c 0,58.08 -3.04,188.63 -8.1,260.54" /></g></g></g></svg>