<?xml version="1.0" encoding="UTF-8" standalone="no"?>
<!-- Created with Inkscape (http://www.inkscape.org/) -->

<svg
   xmlns:dc="http://purl.org/dc/elements/1.1/"
   xmlns:cc="http://creativecommons.org/ns#"
   xmlns:rdf="http://www.w3.org/1999/02/22-rdf-syntax-ns#"
   xmlns:svg="http://www.w3.org/2000/svg"
   xmlns="http://www.w3.org/2000/svg"
   xmlns:sodipodi="http://sodipodi.sourceforge.net/DTD/sodipodi-0.dtd"
   xmlns:inkscape="http://www.inkscape.org/namespaces/inkscape"
   id="svg2"
   version="1.1"
   inkscape:version="0.48.5 r10040"
   width="650.57745"
   height="181.81625"
   xml:space="preserve"
   sodipodi:docname="ES_Signet_4c.svg"><metadata
     id="metadata8"><rdf:RDF><cc:Work
         rdf:about=""><dc:format>image/svg+xml</dc:format><dc:type
           rdf:resource="http://purl.org/dc/dcmitype/StillImage" /><dc:title></dc:title></cc:Work></rdf:RDF></metadata><defs
     id="defs6" /><sodipodi:namedview
     pagecolor="#ffffff"
     bordercolor="#666666"
     borderopacity="1"
     objecttolerance="10"
     gridtolerance="10"
     guidetolerance="10"
     inkscape:pageopacity="0"
     inkscape:pageshadow="2"
     inkscape:window-width="1920"
     inkscape:window-height="998"
     id="namedview4"
     showgrid="false"
     inkscape:zoom="0.62098911"
     inkscape:cx="11.272342"
     inkscape:cy="26.492882"
     inkscape:window-x="3840"
     inkscape:window-y="52"
     inkscape:window-maximized="0"
     inkscape:current-layer="g10"
     fit-margin-top="18"
     fit-margin-bottom="18"
     fit-margin-left="0"
     fit-margin-right="0" /><g
     id="g10"
     inkscape:groupmode="layer"
     inkscape:label="ink_ext_XXXXXX"
     transform="matrix(1.25,0,0,-1.25,0,163.81625)"><g
       id="g12"
       transform="scale(0.1,0.1)"><path
         d="m 865.422,1166.53 -786.7306,0 C 35.3906,1166.53 0,1131.14 0,1087.86 c 63.1992,0 122.109,-10.31 176.535,-28.1 C 343.566,1005.25 468.375,879.953 544.313,762.871 631.445,628.445 758.078,537.73 944.125,537.73 l 0,550.13 c 0,43.28 -35.414,78.67 -78.703,78.67"
         style="fill:#76ade2;fill-opacity:1;fill-rule:nonzero;stroke:none"
         id="path14"
         inkscape:connector-curvature="0" /><path
         d="M 767.574,329.637 C 589.754,389.547 461.723,537.438 395.363,707.004 251.672,1074.05 0,1066.13 0,1066.13 L 0,301.102 c 0,-43.34 35.3906,-78.711 78.6914,-78.711 l 688.8826,0.058 97.848,0 c 43.289,0 78.703,35.313 78.703,78.653 -63.312,0 -122.23,10.164 -176.551,28.535"
         style="fill:#165096;fill-opacity:1;fill-rule:nonzero;stroke:none"
         id="path16"
         inkscape:connector-curvature="0" /><path
         d="m 1640.92,226.395 c -134.81,0 -139.83,136.074 -139.83,321.335 0,239.407 25.2,336.43 141.12,336.43 108.34,0 131.03,-79.387 131.03,-186.484 l 0,-10.082 -64.28,0 0,8.84 c 0,84.402 -10.07,138.578 -66.75,138.578 -63,0 -75.6,-66.77 -75.6,-288.512 0,-180.254 6.3,-270.969 74.31,-270.969 54.2,0 68.04,47.864 68.04,139.895 l 0,8.847 65.55,0 0,-12.617 c 0,-93.332 -17.65,-185.261 -133.59,-185.261"
         style="fill:#76ade2;fill-opacity:1;fill-rule:nonzero;stroke:none"
         id="path18"
         inkscape:connector-curvature="0" /><path
         d="m 1859.61,237.801 62.8594,0 0,910.969 -62.8594,0 0,-910.969 z"
         style="fill:#76ade2;fill-opacity:1;fill-rule:nonzero;stroke:none"
         id="path20"
         inkscape:connector-curvature="0" /><path
         d="m 2028.29,237.801 0,635.012 64.28,0 0,-635.012 -64.28,0 z m 0,821.979 0,77.65 64.28,0 0,-77.65"
         style="fill:#76ade2;fill-opacity:1;fill-rule:nonzero;stroke:none"
         id="path22"
         inkscape:connector-curvature="0" /><path
         d="m 2340.79,831.227 c -74.34,0 -78.12,-103.305 -78.12,-229.305 l 0,-75.637 c 0,-149.98 2.51,-250.754 79.38,-250.754 75.59,0 78.12,93.227 78.12,281.028 0,181.445 -3.77,274.668 -79.38,274.668 z m 15.13,-603.504 c -46.61,0 -79.4,23.894 -93.25,65.468 l 0,-293.191 -64.27,0 0,766.973 c 0,11.351 -3.78,93.25 -3.78,105.84 l 64.27,0 1.26,-61.723 c 17.63,44.094 47.88,71.793 97.03,71.793 109.61,0 128.53,-86.926 128.53,-326.324 0,-218.067 -16.42,-328.836 -129.79,-328.836"
         style="fill:#76ade2;fill-opacity:1;fill-rule:nonzero;stroke:none"
         id="path24"
         inkscape:connector-curvature="0" /><path
         d="m 2694.86,225.145 c -119.73,0 -141.13,79.39 -141.13,173.914 l 0,21.418 65.53,0 0,-21.418 c 0,-76.895 12.58,-124.739 75.6,-124.739 50.39,0 71.79,36.535 71.79,103.274 0,55.5 -21.4,84.472 -56.68,121.008 l -66.77,68.035 c -50.41,50.383 -84.44,97.004 -84.44,172.621 0,81.898 44.11,144.902 137.34,144.902 107.11,0 133.54,-69.293 133.54,-170.101 l 0,-15.133 -65.48,0 0,16.367 c 0,60.5 -2.53,119.719 -68.06,119.719 -51.68,0 -71.81,-40.317 -71.81,-94.504 0,-56.703 30.24,-90.735 70.57,-132.289 l 63.02,-65.52 c 57.95,-59.195 75.6,-93.25 75.6,-163.844 0,-93.234 -46.67,-153.71 -138.62,-153.71"
         style="fill:#76ade2;fill-opacity:1;fill-rule:nonzero;stroke:none"
         id="path26"
         inkscape:connector-curvature="0" /><path
         d="m 3046.38,835.012 c -78.11,0 -78.11,-114.633 -78.11,-249.489 l 154.97,0 c 0,132.282 1.27,249.489 -76.86,249.489 z m -78.11,-298.59 c 0,-8.887 0,-41.629 0,-41.629 0,-131.047 6.28,-219.262 78.11,-219.262 61.73,0 73.12,65.539 74.34,139.895 l 65.55,0 c -5.08,-87.012 -22.72,-189.031 -139.89,-189.031 -141.13,-1.25 -143.61,147.382 -143.61,321.335 0,195.309 2.48,336.43 143.61,336.43 146.19,0 142.38,-136.078 142.38,-347.738 l -220.49,0"
         style="fill:#76ade2;fill-opacity:1;fill-rule:nonzero;stroke:none"
         id="path28"
         inkscape:connector-curvature="0" /><path
         d="m 3421.83,222.613 c -146.12,0 -165.01,100.782 -165.01,231.875 l 0,22.676 69.29,0 0,-18.887 c 0,-98.281 4.99,-180.117 95.72,-180.117 73.12,0 90.8,59.133 90.8,136.028 0,60.437 -23.97,118.417 -59.24,178.914 l -143.63,240.656 c -23.96,41.566 -46.65,100.785 -46.65,148.68 0,102.082 44.09,181.462 158.72,181.462 136.14,0 156.27,-107.12 156.27,-224.287 l 0,-15.133 -68.02,0 0,11.34 c 0,100.8 -11.32,172.6 -89.45,172.6 -59.25,0 -88.2,-44.08 -88.2,-125.982 0,-40.309 18.83,-84.438 51.65,-138.59 l 132.27,-219.282 c 40.3,-66.746 65.53,-134.773 65.53,-211.64 0,-108.391 -35.26,-190.313 -160.05,-190.313"
         style="fill:#165096;fill-opacity:1;fill-rule:nonzero;stroke:none"
         id="path30"
         inkscape:connector-curvature="0" /><path
         d="m 3783.86,835.012 c -75.56,0 -78.14,-102.047 -78.14,-289.762 0,-171.473 2.58,-269.719 78.14,-269.719 78.12,0 76.89,98.246 76.89,269.719 0,188.969 1.23,289.762 -76.89,289.762 z m 0,-608.617 c -141.1,0 -143.67,143.699 -143.67,318.855 0,204.082 2.57,338.91 143.67,338.91 141.13,0 142.42,-128.523 142.42,-338.91 0,-170.137 1.26,-318.855 -142.42,-318.855"
         style="fill:#165096;fill-opacity:1;fill-rule:nonzero;stroke:none"
         id="path32"
         inkscape:connector-curvature="0" /><path
         d="m 4218.57,237.801 -2.48,59.14 c -16.43,-37.714 -44.14,-69.218 -98.27,-69.218 -81.96,0 -100.87,60.379 -100.87,129.734 l 0,515.356 64.3,0 0,-499.036 c 0,-51.613 8.8,-93.195 61.75,-93.195 41.56,0 71.8,39.063 71.8,112.207 l 0,480.024 64.29,0 0,-507.805 c 0,-39.074 0,-69.297 2.5,-127.207 l -63.02,0"
         style="fill:#165096;fill-opacity:1;fill-rule:nonzero;stroke:none"
         id="path34"
         inkscape:connector-curvature="0" /><path
         d="m 4532.35,818.672 c -66.82,0 -83.21,-42.879 -83.21,-128.578 l 0,-452.293 -64.26,0 0,506.504 c 0,12.605 -1.23,73.047 -3.8,128.508 l 63.06,0 2.52,-62.993 c 16.39,42.84 50.37,68.496 84.37,68.496 12.58,0 29.57,-2.113 42.2,-8.933 l -18.62,-55.598 c -8.71,3.996 -18.96,4.887 -22.26,4.887"
         style="fill:#165096;fill-opacity:1;fill-rule:nonzero;stroke:none"
         id="path36"
         inkscape:connector-curvature="0" /><path
         d="m 4725.84,226.395 c -134.85,0 -139.83,136.074 -139.83,321.335 0,239.407 25.18,336.43 141.07,336.43 108.38,0 131.06,-79.387 131.06,-186.484 l 0,-10.082 -64.28,0 0,8.84 c 0,84.402 -10.05,138.578 -66.78,138.578 -62.97,0 -75.54,-66.77 -75.54,-288.512 0,-180.254 6.27,-270.969 74.3,-270.969 54.16,0 68.02,47.864 68.02,139.895 l 0,8.847 65.53,0 0,-12.617 c 0,-93.332 -17.64,-185.261 -133.55,-185.261"
         style="fill:#165096;fill-opacity:1;fill-rule:nonzero;stroke:none"
         id="path38"
         inkscape:connector-curvature="0" /><path
         d="m 5062.29,835.012 c -78.13,0 -78.13,-114.633 -78.13,-249.489 l 154.95,0 c 0,132.282 1.26,249.489 -76.82,249.489 z m -78.13,-298.59 c 0,-8.887 0,-41.629 0,-41.629 0,-131.047 6.33,-219.262 78.13,-219.262 61.71,0 73.08,65.539 74.32,139.895 l 65.51,0 c -5.04,-87.012 -22.68,-189.031 -139.83,-189.031 -141.18,-1.25 -143.67,147.382 -143.67,321.335 0,195.309 2.49,336.43 143.67,336.43 146.15,0 142.32,-136.078 142.32,-347.738 l -220.45,0"
         style="fill:#165096;fill-opacity:1;fill-rule:nonzero;stroke:none"
         id="path40"
         inkscape:connector-curvature="0" /><path
         d="m 1156.73,280.555 c 0.04,-28.52 14.31,-42.785 42.83,-42.825 l 265.71,0.071 0,59.14 -221.92,0 c -11.06,0 -18.58,7.52 -18.58,18.582 l 0,368.282 212.07,0 0,57.968 -212.07,0 0,329.207 c 0,11.05 7.52,18.56 18.58,18.56 l 231.43,0 0,59.23 c 0,0 -256.95,0.03 -275.22,0 -28.52,-0.04 -42.79,-14.31 -42.83,-42.82 l 0,-825.395"
         style="fill:#76ade2;fill-opacity:1;fill-rule:nonzero;stroke:none"
         id="path42"
         inkscape:connector-curvature="0" /></g></g></svg>