<?xml version="1.0" encoding="utf-8"?>
<svg version="1.1" id="Ebene_1" xmlns="http://www.w3.org/2000/svg" xmlns:xlink="http://www.w3.org/1999/xlink" x="0px" y="0px"
	 viewBox="0 0 1838 372.3" style="enable-background:new 0 0 1838 372.3;" xml:space="preserve">
<style type="text/css">
	.st0{fill:#D84315;}
	.st1{fill:#FF5722;}
</style>
<g id="DEV">
	<polygon class="st0" points="100.6,338.7 67.1,372.2 0.2,305.2 33.6,271.8 100.6,271.8 	"/>
	<polygon class="st0" points="101,272 101,204.8 101,137.8 101,71 33.6,71 0.2,104.4 33.6,137.9 0.2,171.3 33.6,204.8 0.2,238.3 
		67.1,305.2 134.3,372.2 168,338.7 168,272 	"/>
	<polygon class="st0" points="267,71 234,71 234,37 201,37 201,4 167.6,4 134.1,4 100.6,4 33.6,4 0.2,37.4 67.1,104.4 100.6,70.9 
		134.1,104.3 150.7,87.8 167.1,104.2 166.9,104.3 200.6,138 200.4,138 166.9,171.4 183.7,188.1 166.9,204.8 200.4,238.3 
		166.9,271.8 167.1,271.9 133.8,305.2 200.6,372.2 234,338.7 234,338.4 267,305.2 267,238.3 267,204.8 267,171.3 267,138.2 
		267,137.8 	"/>
	<g>
		<polygon class="st0" points="401.7,338.7 368.2,372.2 301.2,305.2 334.7,271.8 401.7,271.8 		"/>
		<polygon class="st0" points="468.6,272 435.1,272 402,272 402,205 334.7,205 301.1,238.4 368,305.3 368,305.3 435.1,372.2 
			451.8,355.5 468.5,372.2 502,338.7 502,272 		"/>
		<polygon class="st0" points="401.7,204.8 368.2,238.3 301.2,171.3 334.7,137.8 401.7,137.8 		"/>
		<polygon class="st0" points="402,138 402,71 334.7,71 301.1,104.4 368,171.3 368,171.3 435.2,238.3 469,204.8 469,138 		"/>
		<polygon class="st0" points="468.6,4 435.1,4 401.7,4 401.7,4 334.7,4 301.2,37.3 368.2,104.2 401.7,70.7 435.1,104.2 451.9,87.4 
			468.6,104.2 502,70.7 502,4 		"/>
		<polygon class="st1" points="368,104 368.2,104 401.7,104 435.1,104 469,104 469,37 435.1,37 401.7,37 368.2,37 301,37 301,83.2 
			301,104 301,129 301,171.3 301,238.3 301,305.2 301,372 368.2,372 368.2,372 401.7,372 435.1,372 469,372 469,305 435.1,305 
			401.7,305 368,305 368,238 368,238 368,238 435,238 435,171 400,171 400,171 368,171 368,129 		"/>
	</g>
	<polygon class="st0" points="652,205 652,138 635.3,138 635,137.7 635,70.7 635,4 568.4,4 535,37.3 568.4,70.8 535,104.2 
		576.9,146.1 551.7,171.3 590.3,209.9 561.9,238.3 628.7,305.2 662,271.8 662,205 	"/>
	<polygon class="st0" points="762.5,71 763,70.7 763,4 695.8,4 662.3,37.3 696.1,71 695.8,71 662.3,104.5 695.8,138 676.3,138 
		642.8,171.5 676.3,205 662.3,205 628.8,238.5 662.3,272 628.8,272 595.4,305.4 662.4,372.3 696,338.7 696,305.2 729,271.8 
		729,218.7 743,204.8 743,157.4 763,137.8 763,71 	"/>
	<path class="st1" d="M201,104V71h-33V37H0v67.3v67v67v67V372h201v-33h33v-67.2v-33.5v-33.5v-33.5V104H201z M167,171.3v33.5v33.5
		v33.5V305h-32.9h-0.3H67v-66.7v-67V104h67v34h33V171.3z"/>
	<polygon class="st1" points="662,37 662,104 662,171 643,171 643,238 628.8,238 619,238 619,171 602,171 602,104.2 602,37 535,37 
		535,104.2 535,171 552,171 552,179 552,179 552,238 562,238 562,305 595,305 595,372 662,372 662,305 696,305 696,238 710,238 
		710,171 729,171 729,104 729,37 	"/>
</g>
<g id="FEST">
	<polygon class="st0" points="1669.3,68 1635.7,101.4 1669.3,134.9 1669.3,134.9 1635.7,168.5 1669.3,202.1 1669.3,202.1 
		1635.7,235.8 1669.3,269.4 1669.3,269.4 1635.7,303 1703.2,370.3 1737,336.7 1737,269.4 1737,202.1 1737,134.8 1737,68 	"/>
	<polygon class="st0" points="1803.9,0 1770.3,0 1736.6,0 1736.6,0 1669.3,0 1635.7,0 1602,0 1568.4,0 1534.7,33.7 1602,101 
		1618.9,84.2 1635.7,101 1669.3,67.3 1703,101 1736.6,67.3 1770.3,101 1787.1,84.2 1804.1,101 1838,67.3 1838,0 	"/>
	<polygon class="st0" points="1433.4,0 1433.4,0 1367.6,0 1366.1,0 1300.3,0 1266.7,33.7 1334,101 1366.9,68.1 1399.8,101 
		1433.4,67.3 1467.2,101 1501,67.3 1501,0 	"/>
	<polygon class="st0" points="1367.6,270 1366.1,270 1300.3,270 1266.7,303.5 1334,370.7 1366.9,337.8 1399.6,370.6 1433,337 
		1433,270 	"/>
	<polygon class="st0" points="1500,270 1500,203 1433.6,203 1435,201.9 1435,135 1368,135 1368,67 1300.3,67 1266.7,100.8 
		1334,168.2 1401,235.2 1399.3,236.9 1432.7,270.3 1399.8,303.3 1467.2,370.6 1501,337 1501,270 	"/>
	<g>
		<rect x="1334" y="168" class="st1" width="67" height="68"/>
		<polygon class="st1" points="1399.8,34 1399.8,34 1334,34 1332.5,34 1267,34 1267,101 1267,168 1334,168 1334,101 1399.8,101 
			1399.8,101 1467,101 1467,34 		"/>
		<polygon class="st1" points="1467,237 1399,237 1399,303 1334,303 1332.5,303 1267,303 1267,371 1332.5,371 1334,371 1399.8,371 
			1399.8,371 1467,371 1467,303 1467,303 		"/>
	</g>
	<g>
		<polygon class="st0" points="1132.4,336.6 1098.8,370.3 1031.5,303 1065.1,269.3 1132.4,269.3 		"/>
		<polygon class="st0" points="1199.7,269 1166.1,269 1132,269 1132,202 1065.1,202 1031.5,235.7 1098.8,303 1166.1,370.2 
			1182.9,353.4 1199.5,370.3 1233,336.6 1233,269 		"/>
		<polygon class="st0" points="1132.4,202 1098.8,235.7 1031.5,168.4 1065.1,134.7 1132.4,134.7 		"/>
		<polygon class="st0" points="1132,135 1132,67 1065.1,67 1031.6,100.9 1099,168.3 1099,168.3 1166.3,235.6 1200,202 1200,135 		
			"/>
		<polygon class="st0" points="1199.7,0 1166.1,0 1132.4,0 1065.1,0 1031.5,33.6 1098.8,100.9 1132.4,67.3 1166.1,100.9 
			1182.9,84.1 1199.5,100.9 1233,67.2 1233,0 		"/>
		<rect x="1031" y="73.1" class="st1" width="68" height="61.7"/>
		<polygon class="st1" points="1132.4,101 1166.1,101 1200,101 1200,34 1166.1,34 1132.4,34 1098.8,34 1031,34 1031,101 1031,168.4 
			1031,235.7 1031,303 1031,370 1082,370 1099,370 1099,370 1166,370 1166,370 1200,370 1200,303 1166,303 1166,303 1099,303 
			1099,236 1166,236 1166,168 1099,168 1099,101 		"/>
	</g>
	<polygon class="st0" points="829.9,202 796.3,235.7 829.9,269.3 796.3,303 863.5,370.2 897,336.6 897,269.3 897,202 	"/>
	<polygon class="st0" points="897.2,202 863.6,235.7 796.3,168.4 829.9,134.7 897.2,134.7 	"/>
	<polygon class="st0" points="897,135 897,67 829.9,67 796.5,100.9 864,168.3 864,168.3 931.3,235.6 965,202 965,135 	"/>
	<polygon class="st0" points="964.5,0 930.9,0 897.2,0 897.2,0 829.9,0 796.3,33.6 863.6,100.9 897.2,67.3 930.9,100.9 947.7,84.1 
		964.4,100.9 998,67.2 998,0 	"/>
	<polygon class="st1" points="864,126 864,101 897.2,101 930.9,101 965,101 965,34 930.9,34 897.2,34 863.6,34 796,34 796,70.3 
		796,101 796,125.7 796,168.4 796,235.7 796,303 796,370 864,370 864,303 864,236 931,236 931,168 864,168 864,126 	"/>
	<polygon class="st1" points="1770.3,34 1736.6,34 1703,34 1635.7,34 1602,34 1568.4,34 1535,34 1535,101 1568.4,101 1602,101 
		1636,101 1636,107 1636,107 1636,168.4 1636,235.7 1636,303 1636,370 1703,370 1703,303 1703,235.7 1703,168.4 1703,107.5 
		1703,101 1736.6,101 1770.3,101 1804,101 1804,34 	"/>
</g>
</svg>
